# xmcd
#
# Track frame offsets:
#	150
#	34700
#	109916
#	211846
#	233933
#	276282
#	311314
#
# Disc length: 4422 seconds
#
# Revision: 0
# Processed by: cddbd v1.5.2PL0 Copyright (c) Steve Scherf et al.
# Submitted via: audiograbber 1.83.01
#
DISCID=5a114407
DTITLE=Grateful Dead - 93-05-23 Shoreline Amphitheatre, Mountain View CA
DYEAR=1900
DGENRE=
TTITLE0=Saint Of Circumstance
TTITLE1=Terrapin Station
TTITLE2=Drums > Space
TTITLE3=I Need A Miracle
TTITLE4=The Days Between
TTITLE5=Not Fade Away
TTITLE6=Lucy In The Sky With Diamonds
EXTD=
EXTT0=
EXTT1=
EXTT2=
EXTT3=
EXTT4=
EXTT5=
EXTT6=
PLAYORDER=
